<?xml version="1.0" encoding="UTF-8" standalone="no"?>
<!DOCTYPE svg PUBLIC "-//W3C//DTD SVG 1.1//EN" "http://www.w3.org/Graphics/SVG/1.1/DTD/svg11.dtd">
<svg width="100%" height="100%" viewBox="0 0 357 60" version="1.1" xmlns="http://www.w3.org/2000/svg" xmlns:xlink="http://www.w3.org/1999/xlink" xml:space="preserve" xmlns:serif="http://www.serif.com/" style="fill-rule:evenodd;clip-rule:evenodd;stroke-linejoin:round;stroke-miterlimit:2;">
    <g id="Mopalagen" transform="matrix(0.46254,0,0,0.462754,-70.2336,-147.635)">
        <g transform="matrix(1,0,0,1.01685,0,-6.46403)">
            <path d="M351.963,446.96L351.963,320.105L369.423,320.105L392.763,387.274L393.119,387.274L416.281,320.105L433.919,320.105L433.919,446.96L415.747,446.96L415.747,369.814L415.39,369.814L397.395,424.333L388.309,424.333L370.492,369.814L370.136,369.814L370.136,446.96L351.963,446.96Z" style="fill:white;fill-rule:nonzero;"/>
        </g>
        <g transform="matrix(1,0,0,1,-4.38445,0)">
            <path d="M449.954,350.037C449.954,344.93 450.845,340.416 452.627,336.497C454.409,332.577 456.784,329.31 459.754,326.697C462.604,324.203 465.841,322.303 469.464,320.996C473.086,319.689 476.739,319.036 480.421,319.036C484.103,319.036 487.755,319.689 491.378,320.996C495.001,322.303 498.297,324.203 501.266,326.697C504.117,329.31 506.433,332.577 508.215,336.497C509.997,340.416 510.887,344.93 510.887,350.037L510.887,417.028C510.887,422.373 509.997,426.946 508.215,430.747C506.433,434.548 504.117,437.695 501.266,440.189C498.297,442.803 495.001,444.762 491.378,446.069C487.755,447.376 484.103,448.029 480.421,448.029C476.739,448.029 473.086,447.376 469.464,446.069C465.841,444.762 462.604,442.803 459.754,440.189C456.784,437.695 454.409,434.548 452.627,430.747C450.845,426.946 449.954,422.373 449.954,417.028L449.954,350.037ZM468.127,417.028C468.127,421.423 469.345,424.659 471.78,426.738C474.215,428.816 477.095,429.856 480.421,429.856C483.747,429.856 486.627,428.816 489.062,426.738C491.497,424.659 492.714,421.423 492.714,417.028L492.714,350.037C492.714,345.642 491.497,342.406 489.062,340.327C486.627,338.248 483.747,337.209 480.421,337.209C477.095,337.209 474.215,338.248 471.78,340.327C469.345,342.406 468.127,345.642 468.127,350.037L468.127,417.028Z" style="fill:white;fill-rule:nonzero;"/>
        </g>
        <g transform="matrix(1,0,0,1.01685,-8.62071,-6.46403)">
            <path d="M526.922,446.96L526.922,320.105L554.182,320.105C559.171,320.105 563.565,320.758 567.366,322.065C571.167,323.372 574.612,325.688 577.7,329.014C580.788,332.339 582.926,336.229 584.114,340.683C585.302,345.138 585.896,351.166 585.896,358.767C585.896,364.469 585.569,369.279 584.916,373.199C584.262,377.118 582.867,380.801 580.729,384.245C578.234,388.402 574.909,391.639 570.751,393.955C566.594,396.271 561.13,397.429 554.36,397.429L545.095,397.429L545.095,446.96L526.922,446.96ZM545.095,337.209L545.095,380.325L553.826,380.325C557.508,380.325 560.358,379.791 562.378,378.722C564.397,377.653 565.882,376.168 566.832,374.268C567.782,372.486 568.346,370.289 568.524,367.676C568.703,365.063 568.792,362.152 568.792,358.945C568.792,355.976 568.732,353.155 568.613,350.483C568.495,347.81 567.96,345.464 567.01,343.445C566.06,341.426 564.634,339.882 562.734,338.813C560.833,337.744 558.102,337.209 554.538,337.209L545.095,337.209Z" style="fill:white;fill-rule:nonzero;"/>
        </g>
        <g transform="matrix(1,0,0,1.01685,-13.4665,-6.46403)">
            <path d="M629.546,402.596L620.638,356.629L620.282,356.629L611.373,402.596L629.546,402.596ZM584.648,446.96L612.977,320.105L628.121,320.105L656.45,446.96L638.277,446.96L632.932,419.7L608.166,419.7L602.821,446.96L584.648,446.96Z" style="fill:white;fill-rule:nonzero;"/>
        </g>
        <g transform="matrix(1,0,0,1.01685,-9.81853,-6.46403)">
            <path d="M665.358,446.96L665.358,320.105L683.531,320.105L683.531,428.787L719.52,428.787L719.52,446.96L665.358,446.96Z" style="fill:white;fill-rule:nonzero;"/>
        </g>
        <g transform="matrix(1,0,0,1,-8.85799,1.08002e-12)">
            <path d="M730.21,350.037C730.21,344.93 731.101,340.416 732.883,336.497C734.665,332.577 737.04,329.31 740.01,326.697C742.86,324.203 746.097,322.303 749.72,320.996C753.342,319.689 756.995,319.036 760.677,319.036C764.359,319.036 768.011,319.689 771.634,320.996C775.257,322.303 778.553,324.203 781.522,326.697C784.373,329.31 786.689,332.577 788.471,336.497C790.253,340.416 791.143,344.93 791.143,350.037L791.143,356.451L772.97,356.451L772.97,350.037C772.97,345.642 771.753,342.406 769.318,340.327C766.883,338.248 764.003,337.209 760.677,337.209C757.351,337.209 754.471,338.248 752.036,340.327C749.601,342.406 748.383,345.642 748.383,350.037L748.383,417.028C748.383,421.423 749.601,424.659 752.036,426.738C754.471,428.816 757.351,429.856 760.677,429.856C764.003,429.856 766.883,428.816 769.318,426.738C771.753,424.659 772.97,421.423 772.97,417.028L772.97,393.153L758.539,393.153L758.539,377.118L791.143,377.118L791.143,417.028C791.143,422.373 790.253,426.946 788.471,430.747C786.689,434.548 784.373,437.695 781.522,440.189C778.553,442.803 775.257,444.762 771.634,446.069C768.011,447.376 764.359,448.029 760.677,448.029C756.995,448.029 753.342,447.376 749.72,446.069C746.097,444.762 742.86,442.803 740.01,440.189C737.04,437.695 734.665,434.548 732.883,430.747C731.101,426.946 730.21,422.373 730.21,417.028L730.21,350.037Z" style="fill:white;fill-rule:nonzero;"/>
        </g>
        <g transform="matrix(1,0,0,1.01685,-13.2424,-6.46403)">
            <path d="M807.178,446.96L807.178,320.105L861.341,320.105L861.341,337.209L825.351,337.209L825.351,374.446L856.709,374.446L856.709,391.55L825.351,391.55L825.351,428.787L861.341,428.787L861.341,446.96L807.178,446.96Z" style="fill:white;fill-rule:nonzero;"/>
        </g>
        <g transform="matrix(1,0,0,1.01685,-12.6382,-6.46403)">
            <path d="M872.387,446.96L872.387,320.105L889.848,320.105L917.285,396.539L917.642,396.539L917.642,320.105L935.815,320.105L935.815,446.96L918.711,446.96L890.917,370.704L890.56,370.704L890.56,446.96L872.387,446.96Z" style="fill:white;fill-rule:nonzero;"/>
        </g>
    </g>
    <g id="Logo" transform="matrix(0.414527,0,0,0.414527,-135.54,-103.554)">
        <g transform="matrix(1.43341,0,0,1.11634,338.879,-29.0641)">
            <rect x="71.924" y="249.814" width="62.09" height="128.993" style="fill:rgb(173,7,29);"/>
        </g>
        <g transform="matrix(0.885812,0,0,1.11634,310.264,-29.0641)">
            <rect x="71.924" y="249.814" width="62.09" height="128.993" style="fill:rgb(173,7,29);"/>
        </g>
        <g transform="matrix(0.547593,0,0,1.11634,287.59,-29.0641)">
            <rect x="71.924" y="249.814" width="62.09" height="128.993" style="fill:rgb(173,7,29);"/>
        </g>
    </g>
</svg>
